<svg width="64" height="64" viewBox="0 0 64 64" fill="none" xmlns="http://www.w3.org/2000/svg">
    <defs>
        <linearGradient id="primaryGrad" x1="0%" y1="0%" x2="100%" y2="100%">
            <stop offset="0%" style="stop-color:#8b5cf6;stop-opacity:1" />
            <stop offset="50%" style="stop-color:#7c3aed;stop-opacity:1" />
            <stop offset="100%" style="stop-color:#6d28d9;stop-opacity:1" />
        </linearGradient>

        <linearGradient id="successGrad" x1="0%" y1="0%" x2="100%" y2="100%">
            <stop offset="0%" style="stop-color:#10b981;stop-opacity:1" />
            <stop offset="50%" style="stop-color:#059669;stop-opacity:1" />
            <stop offset="100%" style="stop-color:#047857;stop-opacity:1" />
        </linearGradient>

        <linearGradient id="backgroundGrad" x1="0%" y1="0%" x2="100%" y2="100%">
            <stop offset="0%" style="stop-color:#1e293b;stop-opacity:1" />
            <stop offset="100%" style="stop-color:#0f172a;stop-opacity:1" />
        </linearGradient>

        <filter id="iconGlow" x="-50%" y="-50%" width="200%" height="200%">
            <feGaussianBlur stdDeviation="2" result="coloredBlur" />
            <feMerge>
                <feMergeNode in="coloredBlur" />
                <feMergeNode in="SourceGraphic" />
            </feMerge>
        </filter>
    </defs>

    <rect x="0" y="0" width="64" height="64" rx="16" fill="url(#backgroundGrad)" />

    <rect x="1" y="1" width="62" height="62" rx="15" fill="none" stroke="url(#primaryGrad)"
        stroke-width="1" opacity="0.6" />

    <g transform="translate(20, 16)">
        <rect x="10" y="8" width="4" height="20" rx="2" fill="url(#primaryGrad)"
            filter="url(#iconGlow)" />

        <g fill="url(#primaryGrad)" opacity="0.9">
            <rect x="8" y="4" width="1.5" height="8" rx="0.75" transform="rotate(-15 8 4)" />
            <rect x="10" y="2" width="1.5" height="10" rx="0.75" transform="rotate(-5 10 2)" />
            <rect x="12" y="1" width="1.5" height="11" rx="0.75" />
            <rect x="14" y="2" width="1.5" height="10" rx="0.75" transform="rotate(5 14 2)" />
            <rect x="16" y="4" width="1.5" height="8" rx="0.75" transform="rotate(15 16 4)" />
        </g>

        <g fill="url(#successGrad)">
            <circle cx="4" cy="12" r="1.5" opacity="0.8" />
            <circle cx="20" cy="8" r="1" opacity="0.6" />
            <circle cx="6" cy="24" r="1" opacity="0.7" />
            <circle cx="18" cy="26" r="1.5" opacity="0.8" />

            <circle cx="8" cy="6" r="0.5" opacity="0.5" />
            <circle cx="16" cy="20" r="0.5" opacity="0.6" />
            <circle cx="2" cy="18" r="0.5" opacity="0.4" />
            <circle cx="22" cy="14" r="0.5" opacity="0.5" />
        </g>
    </g>

    <g opacity="0.3">
        <circle cx="12" cy="12" r="1" fill="url(#primaryGrad)" />
        <circle cx="52" cy="52" r="1" fill="url(#primaryGrad)" />
        <circle cx="52" cy="12" r="0.5" fill="url(#successGrad)" />
        <circle cx="12" cy="52" r="0.5" fill="url(#successGrad)" />
    </g>
</svg>