<svg width="1024" height="1024" viewBox="0 0 1024 1024" xmlns="http://www.w3.org/2000/svg">
    <defs>
        <linearGradient id="handleGradient" x1="0%" y1="0%" x2="100%" y2="100%">
            <stop offset="0%" stop-color="#d97706" />
            <stop offset="100%" stop-color="#f59e0b" />
        </linearGradient>
        <linearGradient id="bristleGradient" x1="0%" y1="0%" x2="100%" y2="100%">
            <stop offset="0%" stop-color="#8b5cf6" />
            <stop offset="100%" stop-color="#6d28d9" />
        </linearGradient>
        <linearGradient id="sparkleGradient" x1="0%" y1="0%" x2="100%" y2="100%">
            <stop offset="0%" stop-color="#34d399" />
            <stop offset="100%" stop-color="#059669" />
        </linearGradient>

        <filter id="glow" x="-50%" y="-50%" width="200%" height="200%">
            <feGaussianBlur stdDeviation="12" result="blur" />
            <feMerge>
                <feMergeNode in="blur" />
                <feMergeNode in="SourceGraphic" />
            </feMerge>
        </filter>

        <radialGradient id="dustGradient" cx="50%" cy="50%" r="50%">
            <stop offset="0%" stop-color="#ffffff" stop-opacity="0.8" />
            <stop offset="100%" stop-color="#ffffff" stop-opacity="0" />
        </radialGradient>
    </defs>

    <rect x="0" y="0" width="1024" height="1024" rx="180" fill="#0f172a" />

    <rect x="480" y="200" width="40" height="500" rx="20" fill="url(#handleGradient)" />

    <g fill="url(#bristleGradient)" filter="url(#glow)">
        <rect x="400" y="680" width="224" height="80" rx="40" />
        <rect x="408" y="680" width="16" height="80" rx="8" />
        <rect x="432" y="680" width="16" height="80" rx="8" />
        <rect x="456" y="680" width="16" height="80" rx="8" />
        <rect x="480" y="680" width="16" height="80" rx="8" />
        <rect x="504" y="680" width="16" height="80" rx="8" />
        <rect x="528" y="680" width="16" height="80" rx="8" />
        <rect x="552" y="680" width="16" height="80" rx="8" />
    </g>

    <g stroke="url(#sparkleGradient)" stroke-width="6" stroke-linecap="round" fill="none"
        opacity="0.8">
        <path d="M360 720 Q400 680 440 720" />
        <path d="M560 720 Q600 680 640 720" />
        <path d="M380 760 Q420 720 460 760" />
    </g>

    <g>
        <circle cx="380" cy="740" r="16" fill="url(#sparkleGradient)" filter="url(#glow)"
            opacity="0.9" />
        <circle cx="600" cy="700" r="12" fill="url(#sparkleGradient)" filter="url(#glow)"
            opacity="0.8" />
        <circle cx="420" cy="780" r="10" fill="url(#sparkleGradient)" filter="url(#glow)"
            opacity="0.7" />
        <circle cx="500" cy="740" r="8" fill="url(#dustGradient)" opacity="0.6" />
        <circle cx="450" cy="760" r="6" fill="url(#dustGradient)" opacity="0.5" />
    </g>

    <g opacity="0.4">
        <circle cx="300" cy="800" r="8" fill="url(#dustGradient)" />
        <circle cx="620" cy="680" r="6" fill="url(#dustGradient)" />
        <circle cx="480" cy="820" r="10" fill="url(#dustGradient)" />
    </g>
</svg>