<svg width="64" height="64" viewBox="0 0 64 64" fill="none" xmlns="http://www.w3.org/2000/svg">
    <defs>
        <linearGradient id="gradient" x1="0%" y1="0%" x2="100%" y2="100%">
            <stop offset="0%" style="stop-color:#8b5cf6;stop-opacity:1" />
            <stop offset="50%" style="stop-color:#7c3aed;stop-opacity:1" />
            <stop offset="100%" style="stop-color:#6d28d9;stop-opacity:1" />
        </linearGradient>
    </defs>

    <circle cx="32" cy="32" r="30" fill="url(#gradient)" stroke="#1e293b" stroke-width="2" />

    <g transform="translate(16, 18)">
        <path
            d="M16 2C16 2 10.5 5 6 5S-0 2 0 2V14C0 20 6 26 16 26S32 20 32 14V2C32 2 25.5 5 21 5S16 2 16 2Z"
            stroke="white" stroke-width="2" fill="none" />

        <g transform="translate(12, 8)">
            <rect x="0" y="0" width="2" height="12" fill="white" rx="1" />
            <circle cx="1" cy="2" r="2" fill="white" />
            <path d="M-1 14L3 14" stroke="white" stroke-width="1.5" stroke-linecap="round" />
            <path d="M-0.5 16L2.5 16" stroke="white" stroke-width="1.5" stroke-linecap="round" />
        </g>

        <g fill="white">
            <circle cx="8" cy="6" r="1" />
            <circle cx="24" cy="8" r="1" />
            <circle cx="6" cy="18" r="1" />
            <circle cx="26" cy="16" r="1" />
        </g>
    </g>
</svg>