<svg width="32" height="32" viewBox="0 0 32 32" fill="none" xmlns="http://www.w3.org/2000/svg">
    <defs>
        <linearGradient id="faviconGradient" x1="0%" y1="0%" x2="100%" y2="100%">
            <stop offset="0%" style="stop-color:#8b5cf6;stop-opacity:1" />
            <stop offset="50%" style="stop-color:#7c3aed;stop-opacity:1" />
            <stop offset="100%" style="stop-color:#6d28d9;stop-opacity:1" />
        </linearGradient>

        <linearGradient id="sparkleGradient" x1="0%" y1="0%" x2="100%" y2="100%">
            <stop offset="0%" style="stop-color:#10b981;stop-opacity:1" />
            <stop offset="100%" style="stop-color:#059669;stop-opacity:1" />
        </linearGradient>
    </defs>

    <rect x="0" y="0" width="32" height="32" rx="8" fill="#0f172a" />

    <rect x="1" y="1" width="30" height="30" rx="7" fill="none" stroke="url(#faviconGradient)"
        stroke-width="1" opacity="0.6" />

    <g transform="translate(8, 8)">
        <rect x="6" y="4" width="2.5" height="12" rx="1.25" fill="url(#faviconGradient)" />

        <g fill="url(#faviconGradient)" opacity="0.9">
            <rect x="5" y="2" width="1" height="4" rx="0.5" transform="rotate(-10 5 2)" />
            <rect x="6.5" y="1" width="1" height="5" rx="0.5" />
            <rect x="8" y="1" width="1" height="5" rx="0.5" />
            <rect x="9.5" y="2" width="1" height="4" rx="0.5" transform="rotate(10 9.5 2)" />
        </g>

        <g fill="url(#sparkleGradient)">
            <circle cx="3" cy="6" r="0.8" opacity="0.8" />
            <circle cx="12" cy="4" r="0.6" opacity="0.7" />
            <circle cx="4" cy="12" r="0.5" opacity="0.6" />
            <circle cx="11" cy="10" r="0.7" opacity="0.8" />
        </g>
    </g>
</svg>